{"title":"Trains- The Blue Mountains- Vol.1^D^","uid":7671967,"size":732549120,"categoryP":"video","categoryS":"other","magnet":"?xt=urn:btih:630fa5bf1811f047f265237433870dd3c0fd8632&amp;dn=Trains-+The+Blue+Mountains-+Vol.1%5ED%5E&amp;tr=udp%3A%2F%2Ftracker.openbittorrent.com%3A80&amp;tr=udp%3A%2F%2Fopen.demonii.com%3A1337&amp;tr=udp%3A%2F%2Ftracker.coppersurfer.tk%3A6969&amp;tr=udp%3A%2F%2Fexodus.desync.com%3A6969","seeders":0,"leechers":0,"uploader":"upsdave","files":-1,"time":1348600576,"description":"\nDiesels in The Blue Mountains Vol 1\n\nVolume 1: La Grande to Huntington. Dramatic footage covers all the action from La Grande to Huntington. Climbing out of the Grande Ronde Valley and heading past Oxman Curve and through Burnt River Canyon, Dash 8-40CWs, SD40-2s, C36-7s, and SD60s take on the 2.2 percent grades of UP's roughest helper district. Trailer trains, container trains, doublestacks, grain, soda ash, auto racks, and Amtrak are seen on this exciting journey.\n\n\n\n\nFormat                                   : AVI\nFormat/Info                              : Audio Video Interleave\nFile size                                : 699 MiB\nDuration                                 : 58mn 57s\nOverall bit rate                         : 1 656 Kbps\nWriting application                      : VirtualDubMod 1.5.4.1 (build 2178/release)\nWriting library                          : VirtualDubMod build 2178/release\n\nVideo\nID                                       : 0\nFormat                                   : MPEG-4 Visual\nFormat profile                           : Advanced Simple@L5\nFormat settings, BVOP                    : 1\nFormat settings, QPel                    : No\nFormat settings, GMC                     : No warppoints\nFormat settings, Matrix                  : Custom\nCodec ID                                 : XVID\nCodec ID/Hint                            : XviD\nDuration                                 : 58mn 57s\nBit rate                                 : 1 393 Kbps\nWidth                                    : 640 pixels\nHeight                                   : 480 pixels\nDisplay aspect ratio                     : 4:3\nFrame rate                               : 29.970 fps\nColor space                              : YUV\nChroma subsampling                       : 4:2:0\nBit depth                                : 8 bits\nScan type                                : Progressive\nCompression mode                         : Lossy\nBits/(Pixel*Frame)                       : 0.151\nStream size                              : 587 MiB (84%)\nWriting library                          : XviD 1.2.0.dev47 (UTC 2006-11-01)\n\nAudio\nID                                       : 1\nFormat                                   : AC-3\nFormat/Info                              : Audio Coding 3\nMode extension                           : CM (complete main)\nCodec ID                                 : 2000\nDuration                                 : 58mn 57s\nBit rate mode                            : Constant\nBit rate                                 : 256 Kbps\nChannel(s)                               : 2 channels\nChannel positions                        : Front: L R\nSampling rate                            : 48.0 KHz\nBit depth                                : 16 bits\nCompression mode                         : Lossy\nDelay relative to video                  : 8ms\nStream size                              : 108 MiB (15%)\nAlignment                                : Split accross interleaves\nInterleave, duration                     : 96 ms (2.88 video frames)\nInterleave, preload duration             : 96 ms\n\n","torrent":{"xt":"urn:btih:630fa5bf1811f047f265237433870dd3c0fd8632","amp;dn":"Trains-+The+Blue+Mountains-+Vol.1%5ED%5E","amp;tr":["udp%3A%2F%2Ftracker.openbittorrent.com%3A80","udp%3A%2F%2Fopen.demonii.com%3A1337","udp%3A%2F%2Ftracker.coppersurfer.tk%3A6969","udp%3A%2F%2Fexodus.desync.com%3A6969"],"infoHash":"630fa5bf1811f047f265237433870dd3c0fd8632","infoHashBuffer":{"type":"Buffer","data":[99,15,165,191,24,17,240,71,242,101,35,116,51,135,13,211,192,253,134,50]},"announce":[],"urlList":[]}}